<svg width="48" height="48" viewBox="0 0 48 48" fill="none" xmlns="http://www.w3.org/2000/svg">
<path fill-rule="evenodd" clip-rule="evenodd" d="M31 24C31 27.866 27.866 31 24 31C20.134 31 17 27.866 17 24C17 20.134 20.134 17 24 17C27.866 17 31 20.134 31 24ZM33 24C33 28.9706 28.9706 33 24 33C19.0294 33 15 28.9706 15 24C15 19.0294 19.0294 15 24 15C28.9706 15 33 19.0294 33 24ZM22.7071 21.2929C22.3166 20.9024 21.6834 20.9024 21.2929 21.2929C20.9024 21.6834 20.9024 22.3166 21.2929 22.7071L22.5858 24L21.2929 25.2929C20.9024 25.6834 20.9024 26.3166 21.2929 26.7071C21.6834 27.0976 22.3166 27.0976 22.7071 26.7071L24 25.4142L25.2929 26.7071C25.6834 27.0976 26.3166 27.0976 26.7071 26.7071C27.0976 26.3166 27.0976 25.6834 26.7071 25.2929L25.4142 24L26.7071 22.7071C27.0976 22.3166 27.0976 21.6834 26.7071 21.2929C26.3166 20.9024 25.6834 20.9024 25.2929 21.2929L24 22.5858L22.7071 21.2929Z" fill="black"/>
</svg>
