<svg width="48" height="48" viewBox="0 0 48 48" fill="none" xmlns="http://www.w3.org/2000/svg">
<path d="M25.2279 19.299L29.3995 23.4706L22.1146 30.7554L16.2598 32.3676L17.872 26.5128L27.5741 16.8107C27.7208 16.7189 28.1496 16.4853 28.7236 16.4516C29.2964 16.418 30.1304 16.5741 31.0919 17.5355C32.0534 18.497 32.2094 19.331 32.1758 19.9038C32.1421 20.4778 31.9085 20.9066 31.8167 21.0533L30.8137 22.0564L26.6422 17.8848L25.2279 19.299ZM27.5924 16.7924C27.5928 16.792 27.5928 16.792 27.5923 16.7925L27.5924 16.7924ZM31.835 21.035L31.8349 21.0351C31.8352 21.0349 31.8353 21.0347 31.8353 21.0347C31.8353 21.0347 31.8352 21.0348 31.835 21.035Z" stroke="black" stroke-width="2"/>
</svg>
